<svg width="181" height="181" viewBox="0 0 181 181" fill="none" xmlns="http://www.w3.org/2000/svg">
<rect x="53.576" y="23.892" width="77.106" height="130.682" fill="black"/>
<g clip-path="url(#clip0_1_14)">
<mask id="mask0_1_14" style="mask-type:luminance" maskUnits="userSpaceOnUse" x="0" y="0" width="181" height="181">
<path d="M181 90.5C181 40.5182 140.482 0 90.5 0C40.5182 0 0 40.5182 0 90.5C0 140.482 40.5182 181 90.5 181C140.482 181 181 140.482 181 90.5Z" fill="white"/>
</mask>
<g mask="url(#mask0_1_14)">
<path fill-rule="evenodd" clip-rule="evenodd" d="M90.5 0C140.482 0 181 40.5183 181 90.5C181 140.482 140.482 181 90.5 181C40.5183 181 0 140.482 0 90.5C0 40.5183 40.5183 0 90.5 0ZM77.1556 129.234L60.816 145.524H104.387L120.727 129.234H77.1556ZM60.816 121.994H104.387L120.727 105.704H77.1556L60.816 121.994ZM60.816 98.464H104.387L120.727 82.174H77.1556L60.816 98.464ZM60.816 74.934H104.387L120.727 58.644H77.1556L60.816 74.934ZM60.816 51.404H104.387L120.364 35.476H76.7925L60.816 51.404Z" fill="white"/>
</g>
</g>
<defs>
<clipPath id="clip0_1_14">
<rect width="181" height="181" fill="white"/>
</clipPath>
</defs>
</svg>
