<svg width="181" height="181" viewBox="0 0 181 181" fill="none" xmlns="http://www.w3.org/2000/svg">
<g clip-path="url(#clip0_1_12)">
<path d="M181 90.5C181 140.482 140.482 181 90.5 181C40.5182 181 0 140.482 0 90.5C0 40.5182 40.5182 0 90.5 0C140.482 0 181 40.5182 181 90.5Z" fill="#25343D"/>
<path fill-rule="evenodd" clip-rule="evenodd" d="M90.5 181C99.0873 181 107.394 179.798 115.265 177.563V17.2237L89.6627 42.7339V180.996C89.9415 180.999 90.2206 181 90.5 181ZM74.2666 179.54V58.4416L48.6645 83.9518V170.761C56.5834 174.897 65.188 177.895 74.2666 179.54Z" fill="white"/>
</g>
<defs>
<clipPath id="clip0_1_12">
<rect width="181" height="181" fill="white"/>
</clipPath>
</defs>
</svg>
